<svg height="128" width="128" xmlns="http://www.w3.org/2000/svg">
  <rect x="2" y="2" width="124" height="124" rx="14" fill="#363d52" stroke="#212532" stroke-width="4"/>
  <g transform="scale(2) translate(12, 12)">
    <path d="M32 16C32 7.16 24.84 0 16 0C7.16 0 0 7.16 0 16C0 24.84 7.16 32 16 32C24.84 32 32 24.84 32 16Z" fill="#8da5f3"/>
    <path d="M16 4C9.37 4 4 9.37 4 16C4 22.63 9.37 28 16 28C22.63 28 28 22.63 28 16C28 9.37 22.63 4 16 4ZM11 13C12.1 13 13 13.9 13 15C13 16.1 12.1 17 11 17C9.9 17 9 16.1 9 15C9 13.9 9.9 13 11 13ZM21 13C22.1 13 23 13.9 23 15C23 16.1 22.1 17 21 17C19.9 17 19 16.1 19 15C19 13.9 19.9 13 21 13ZM16 24C12.69 24 9.87 22.03 8.5 19.2C8.5 19.2 12 21 16 21C20 21 23.5 19.2 23.5 19.2C22.13 22.03 19.31 24 16 24Z" fill="#478cbf"/>
  </g>
</svg>
